<?xml version="1.0" encoding="utf-8"?>
<!-- Generator: Adobe Illustrator 18.1.1, SVG Export Plug-In . SVG Version: 6.00 Build 0)  -->
<svg version="1.1" id="Layer_1" xmlns="http://www.w3.org/2000/svg" xmlns:xlink="http://www.w3.org/1999/xlink" x="0px" y="0px"
	 viewBox="5 147.5 801.4 319.5" enable-background="new 5 147.5 801.4 319.5" xml:space="preserve">
<g transform="translate(22.5000185, 22.5000185) ">
	<polygon fill="none" stroke="#000000" stroke-width="0.9" points="0.5,143 43,143 43,151.5 85.5,151.5 85.5,143 113.9,143 
		113.9,151.5 142.2,151.5 142.2,143 170.6,143 170.6,151.5 198.9,151.5 198.9,143 227.3,143 227.3,151.5 269.8,151.5 269.8,143 
		312.3,143 312.3,171.4 303.8,171.4 303.8,199.7 312.3,199.7 312.3,228.1 303.8,228.1 303.8,256.4 312.3,256.4 312.3,284.8 
		269.8,284.8 269.8,276.3 227.3,276.3 227.3,284.8 198.9,284.8 198.9,276.3 170.6,276.3 170.6,284.8 142.2,284.8 142.2,276.3 
		113.9,276.3 113.9,284.8 85.5,284.8 85.5,276.3 43,276.3 43,284.8 0.5,284.8 0.5,256.4 9,256.4 9,228.1 0.5,228.1 0.5,199.7 
		9,199.7 9,171.4 0.5,171.4 	"/>
</g>
<g transform="translate(412.2641185, 22.5000185) ">
	<polygon fill="none" stroke="#000000" stroke-width="0.9" points="-77.5,143 -34.9,143 -34.9,151.5 7.6,151.5 7.6,143 35.9,143 
		35.9,151.5 64.3,151.5 64.3,143 92.6,143 92.6,151.5 121,151.5 121,143 149.3,143 149.3,151.5 191.8,151.5 191.8,143 234.4,143 
		234.4,171.4 225.9,171.4 225.9,199.7 234.4,199.7 234.4,228.1 225.9,228.1 225.9,256.4 234.4,256.4 234.4,284.8 191.8,284.8 
		191.8,276.3 149.3,276.3 149.3,284.8 121,284.8 121,276.3 92.6,276.3 92.6,284.8 64.3,284.8 64.3,276.3 35.9,276.3 35.9,284.8 
		7.6,284.8 7.6,276.3 -34.9,276.3 -34.9,284.8 -77.5,284.8 -77.5,256.4 -68.9,256.4 -68.9,228.1 -77.5,228.1 -77.5,199.7 
		-68.9,199.7 -68.9,171.4 -77.5,171.4 	"/>
</g>
<g transform="translate(802.0282185, 22.5000185) ">
	<polygon fill="none" stroke="#000000" stroke-width="0.9" points="-146.9,143 -127.1,143 -127.1,151.5 -98.7,151.5 -98.7,143 
		-70.4,143 -70.4,151.5 -42,151.5 -42,143 -22.2,143 -22.2,171.4 -13.7,171.4 -13.7,199.7 -22.2,199.7 -22.2,228.1 -13.7,228.1 
		-13.7,256.4 -22.2,256.4 -22.2,284.8 -42,284.8 -42,276.3 -70.4,276.3 -70.4,284.8 -98.7,284.8 -98.7,276.3 -127.1,276.3 
		-127.1,284.8 -146.9,284.8 -146.9,256.4 -155.4,256.4 -155.4,228.1 -146.9,228.1 -146.9,199.7 -155.4,199.7 -155.4,171.4 
		-146.9,171.4 	"/>
</g>
<g transform="translate(802.0282185, 199.6655185) ">
	<polygon fill="none" stroke="#000000" stroke-width="0.9" points="-146.9,107.6 -127.1,107.6 -127.1,116.1 -98.7,116.1 
		-98.7,107.6 -70.4,107.6 -70.4,116.1 -42,116.1 -42,107.6 -22.2,107.6 -22.2,135.9 -13.7,135.9 -13.7,164.3 -22.2,164.3 
		-22.2,192.6 -13.7,192.6 -13.7,221 -22.2,221 -22.2,249.3 -42,249.3 -42,240.8 -70.4,240.8 -70.4,249.3 -98.7,249.3 -98.7,240.8 
		-127.1,240.8 -127.1,249.3 -146.9,249.3 -146.9,221 -155.4,221 -155.4,192.6 -146.9,192.6 -146.9,164.3 -155.4,164.3 -155.4,135.9 
		-146.9,135.9 	"/>
</g>
<g transform="translate(22.5000185, 199.6655185) ">
	<polygon fill="none" stroke="#000000" stroke-width="0.9" points="9,116.1 43,116.1 43,107.6 85.5,107.6 85.5,116.1 113.9,116.1 
		113.9,107.6 142.2,107.6 142.2,116.1 170.6,116.1 170.6,107.6 198.9,107.6 198.9,116.1 227.3,116.1 227.3,107.6 269.8,107.6 
		269.8,116.1 303.8,116.1 303.8,135.9 312.3,135.9 312.3,164.3 303.8,164.3 303.8,192.6 312.3,192.6 312.3,221 303.8,221 
		303.8,240.8 269.8,240.8 269.8,249.3 227.3,249.3 227.3,240.8 198.9,240.8 198.9,249.3 170.6,249.3 170.6,240.8 142.2,240.8 
		142.2,249.3 113.9,249.3 113.9,240.8 85.5,240.8 85.5,249.3 43,249.3 43,240.8 9,240.8 9,221 0.5,221 0.5,192.6 9,192.6 9,164.3 
		0.5,164.3 0.5,135.9 9,135.9 	"/>
</g>
<g transform="translate(412.2641185, 199.6655185) ">
	<polygon fill="none" stroke="#000000" stroke-width="0.9" points="-68.9,116.1 -34.9,116.1 -34.9,107.6 7.6,107.6 7.6,116.1 
		35.9,116.1 35.9,107.6 64.3,107.6 64.3,116.1 92.6,116.1 92.6,107.6 121,107.6 121,116.1 149.3,116.1 149.3,107.6 191.8,107.6 
		191.8,116.1 225.9,116.1 225.9,135.9 234.4,135.9 234.4,164.3 225.9,164.3 225.9,192.6 234.4,192.6 234.4,221 225.9,221 
		225.9,240.8 191.8,240.8 191.8,249.3 149.3,249.3 149.3,240.8 121,240.8 121,249.3 92.6,249.3 92.6,240.8 64.3,240.8 64.3,249.3 
		35.9,249.3 35.9,240.8 7.6,240.8 7.6,249.3 -34.9,249.3 -34.9,240.8 -68.9,240.8 -68.9,221 -77.5,221 -77.5,192.6 -68.9,192.6 
		-68.9,164.3 -77.5,164.3 -77.5,135.9 -68.9,135.9 	"/>
</g>
<rect id="rect3788" x="37.6" y="364.3" fill="#241C1C" width="17" height="17.9"/>
<polyline id="rect3790" fill="#241C1C" points="318,381 65.2,381 65.2,365.4 318,365.4 "/>
</svg>
